<?xml version="1.0" encoding="utf-8"?>
<!-- Generator: Adobe Illustrator 16.0.0, SVG Export Plug-In . SVG Version: 6.00 Build 0)  -->
<!DOCTYPE svg PUBLIC "-//W3C//DTD SVG 1.1//EN" "http://www.w3.org/Graphics/SVG/1.1/DTD/svg11.dtd">
<svg version="1.1" id="Layer_1" xmlns="http://www.w3.org/2000/svg" xmlns:xlink="http://www.w3.org/1999/xlink" x="0px" y="0px"
	 width="1190.55px" height="841.89px" viewBox="0 0 1190.55 841.89" enable-background="new 0 0 1190.55 841.89"
	 xml:space="preserve">
<g id="Layer_2">
	<g>
		<g>
			<path fill="rgba(255,255,255,0.1)" d="M668.397,309.497c-1.334-20-6.666-28.666-14.666-46.666c-8-17.333-19.334-27.333-36-35.333
				c-14.668-6.667-41.334-11.333-58-10.667c-17.334,1.333-40.668,6.667-56.668,14.667c-34,16.667-62.666,40-85.332,72
				c-26,37.334-52,75.333-75.334,114.667c-29.332,48-57.332,99.334-93.332,143.333c-14,17.334-29.334,34.666-46.668,49.334
				c-11.334,10-23.334,16-38.668,19.332h5.334c12-2,24-3.332,36.668-4.666c32.666-4.666,64.666-12,96.666-20.666
				c32.668-8.668,64.09-14.092,95.334-24.668c43.332-14.666,69.998-22.666,103.332-38.666c34-15.999,141.334-71.331,118-76.665
				c-9.236-2.111,3.334-1.334,9.334-8c10-9.334-12-7.334,0-11.334c15.334-4.668,3.334-9.334-0.666-18
				c-6.666-15.334,6-6.668,13.332-10.668c10.668-6,6-13.332,8-22.666c1.334-8.668,2.668-16.668,8-23.334
				C668.397,356.83,669.063,327.497,668.397,309.497z M624.397,374.164c-6.666,12.666-24.666,17.334-37.332,21.334
				c-11.334,3.332-42,22.666-30.668,1.332c8-11.332,22.668-26,35.334-31.332C604.397,359.498,637.065,351.498,624.397,374.164z"/>
		</g>
	</g>
</g>
</svg>
